<mxfile host="app.diagrams.net" modified="2023-07-27T05:59:11.515Z" agent="Mozilla/5.0 (Macintosh; Intel Mac OS X 10_15_7) AppleWebKit/537.36 (KHTML, like Gecko) Chrome/114.0.0.0 Safari/537.36" version="21.6.3" etag="yh1g9jhcmXbjSUPYwpPO" type="github">
  <diagram name="第 1 页" id="9DcLRGT_du6rIVWENZZ9">
    <mxGraphModel>
      <root>
        <mxCell id="0" />
        <mxCell id="1" parent="0" />
      </root>
    </mxGraphModel>
  </diagram>
</mxfile>
